{"glyphs":{":":{"x_min":0,"x_max":171,"ha":171,"o":"m 37 107 l 134 107 l 134 -10 l 37 -10 z m 37 400 l 134 400 l 134 283 l 37 283 z"},"$":{"x_min":0,"x_max":574,"ha":574,"o":"m 336 283 l 336 156 l 397 156 q 413 156 426 174 q 439 192 439 220 q 439 248 426 265 q 413 283 397 283 z m 238 527 l 177 527 q 161 527 148 510 q 134 492 134 464 q 134 436 148 418 q 161 400 177 400 l 238 400 z m 238 283 l 177 283 q 117 283 77 337 q 37 391 37 464 q 37 537 77 591 q 117 645 177 645 l 238 645 l 238 693 l 336 693 l 336 645 l 537 645 l 537 527 l 336 527 l 336 400 l 397 400 q 457 400 497 347 q 537 293 537 220 q 537 146 497 93 q 457 39 397 39 l 336 39 l 336 -10 l 238 -10 l 238 39 l 37 39 l 37 156 l 238 156 z"},"?":{"x_min":0,"x_max":574,"ha":574,"o":"m 287 283 q 271 283 258 265 q 244 248 244 220 l 244 137 l 146 137 l 146 220 q 146 293 187 347 q 227 400 287 400 l 397 400 q 413 400 426 418 q 439 436 439 464 l 439 513 q 439 541 426 558 q 413 576 397 576 l 37 576 l 37 693 l 397 693 q 457 693 497 640 q 537 586 537 513 l 537 464 q 537 391 497 337 q 457 283 397 283 z m 146 107 l 244 107 l 244 -10 l 146 -10 z"},"<":{"x_min":0,"x_max":500,"ha":500,"o":"m 37 263 l 37 421 l 464 602 l 464 482 l 134 343 l 134 341 l 464 201 l 464 82 z"},"'":{"x_min":0,"x_max":171,"ha":171,"o":"m 73 576 l 37 576 l 37 693 l 134 693 l 134 562 q 134 539 121 521 q 107 503 85 503 l 62 503 l 32 571 l 67 571 q 73 571 73 576 z"},"=":{"x_min":0,"x_max":500,"ha":500,"o":"m 37 498 l 464 498 l 464 381 l 37 381 z m 37 303 l 464 303 l 464 186 l 37 186 z"},"a":{"x_min":0,"x_max":500,"ha":500,"o":"m 134 171 q 134 143 148 125 q 161 107 177 107 l 366 107 l 366 405 l 177 405 q 161 405 148 387 q 134 370 134 342 z m 464 -10 l 177 -10 q 117 -10 77 44 q 37 98 37 171 l 37 342 q 37 415 77 469 q 117 522 177 522 l 464 522 z"},"L":{"x_min":0,"x_max":537,"ha":537,"o":"m 500 107 l 500 -10 l 177 -10 q 117 -10 77 44 q 37 98 37 171 l 37 693 l 134 693 l 134 171 q 134 143 148 125 q 161 107 177 107 z"},"3":{"x_min":0,"x_max":574,"ha":574,"o":"m 146 283 l 146 400 l 397 400 q 413 400 426 418 q 439 436 439 464 l 439 513 q 439 541 426 558 q 413 576 397 576 l 37 576 l 37 693 l 397 693 q 457 693 497 640 q 537 586 537 513 l 537 464 q 537 391 502 341 q 537 293 537 220 l 537 171 q 537 98 497 44 q 457 -10 397 -10 l 37 -10 l 37 107 l 397 107 q 413 107 426 125 q 439 143 439 171 l 439 220 q 439 248 426 265 q 413 283 397 283 z"},";":{"x_min":0,"x_max":171,"ha":171,"o":"m 37 400 l 134 400 l 134 283 l 37 283 z m 73 -10 l 37 -10 l 37 107 l 134 107 l 134 -24 q 134 -47 121 -65 q 107 -83 85 -83 l 62 -83 l 32 -15 l 67 -15 q 73 -15 73 -10 z"},"J":{"x_min":0,"x_max":537,"ha":537,"o":"m 360 107 q 376 107 389 125 q 403 143 403 171 l 403 693 l 500 693 l 500 171 q 500 98 460 44 q 420 -10 360 -10 l 37 -10 l 37 107 z"},"V":{"x_min":0,"x_max":562,"ha":562,"o":"m 216 -10 l 9 693 l 107 693 l 280 107 l 281 107 l 454 693 l 553 693 l 345 -10 z"},"\"":{"x_min":0,"x_max":281,"ha":281,"o":"m 73 576 l 37 576 l 37 693 l 134 693 l 134 562 q 134 539 121 521 q 107 503 85 503 l 62 503 l 32 571 l 67 571 q 73 571 73 576 z m 183 576 l 146 576 l 146 693 l 244 693 l 244 562 q 244 539 231 521 q 217 503 195 503 l 171 503 l 142 571 l 177 571 q 183 571 183 576 z"},"7":{"x_min":0,"x_max":586,"ha":586,"o":"m 504 693 l 278 -10 l 170 -10 l 359 576 l 37 576 l 37 693 z"},"S":{"x_min":0,"x_max":610,"ha":610,"o":"m 177 283 q 117 283 77 337 q 37 391 37 464 l 37 513 q 37 586 77 640 q 117 693 177 693 l 574 693 l 574 576 l 177 576 q 161 576 148 558 q 134 541 134 513 l 134 464 q 134 436 148 418 q 161 400 177 400 l 434 400 q 493 400 533 347 q 574 293 574 220 l 574 171 q 574 98 533 44 q 493 -10 434 -10 l 37 -10 l 37 107 l 434 107 q 449 107 463 125 q 476 143 476 171 l 476 220 q 476 248 463 265 q 449 283 434 283 z"},"}":{"x_min":0,"x_max":427,"ha":427,"o":"m 219 341 q 183 391 183 464 l 183 562 q 183 589 170 607 q 156 625 141 625 l 37 625 l 37 742 l 141 742 q 200 742 240 688 q 281 635 281 562 l 281 464 q 281 436 294 418 q 308 400 324 400 l 391 400 l 391 283 l 324 283 q 308 283 294 265 q 281 248 281 220 l 281 122 q 281 49 240 -5 q 200 -59 141 -59 l 37 -59 l 37 59 l 141 59 q 156 59 170 76 q 183 94 183 122 l 183 220 q 183 293 219 341 z"},"Z":{"x_min":0,"x_max":610,"ha":610,"o":"m 398 576 l 37 576 l 37 693 l 581 693 l 212 107 l 574 107 l 574 -10 l 29 -10 z"},"x":{"x_min":0,"x_max":452,"ha":452,"o":"m 166 256 l 5 522 l 124 522 l 226 354 l 328 522 l 447 522 l 285 256 l 447 -10 l 328 -10 l 226 159 l 124 -10 l 5 -10 z"},")":{"x_min":0,"x_max":391,"ha":391,"o":"m 214 59 q 229 59 243 76 q 256 94 256 122 l 256 562 q 256 589 243 607 q 229 625 214 625 l 37 625 l 37 742 l 214 742 q 273 742 314 688 q 354 635 354 562 l 354 122 q 354 49 314 -5 q 273 -59 214 -59 l 37 -59 l 37 59 z"},"&":{"x_min":0,"x_max":573,"ha":573,"o":"m 287 107 q 303 107 316 125 q 330 143 330 171 l 330 269 q 330 296 316 314 q 303 332 287 332 l 177 332 q 161 332 148 314 q 134 296 134 269 l 134 171 q 134 143 148 125 q 161 107 177 107 z m 287 449 q 303 449 316 467 q 330 485 330 513 q 330 541 316 558 q 303 576 287 576 l 177 576 q 161 576 148 558 q 134 541 134 513 q 134 485 148 467 q 161 449 177 449 z m 378 36 q 347 -10 287 -10 l 177 -10 q 117 -10 77 44 q 37 98 37 171 l 37 269 q 37 342 72 391 q 37 439 37 513 q 37 586 77 640 q 117 693 177 693 l 287 693 q 347 693 387 640 q 427 586 427 513 q 417 444 398 415 q 415 439 470 449 l 538 449 l 538 332 l 470 332 q 454 332 441 314 q 427 296 427 269 l 427 171 q 427 143 441 125 q 454 107 470 107 l 538 107 l 538 -10 l 470 -10 q 410 -10 378 36 z"},"_":{"x_min":0,"x_max":537,"ha":537,"o":"m 500 -39 l 500 -156 l 37 -156 l 37 -39 z"},"v":{"x_min":0,"x_max":452,"ha":452,"o":"m 226 108 l 344 522 l 442 522 l 291 -10 l 161 -10 l 9 522 l 107 522 z"},"O":{"x_min":0,"x_max":610,"ha":610,"o":"m 134 171 q 134 143 148 125 q 161 107 177 107 l 434 107 q 449 107 463 125 q 476 143 476 171 l 476 513 q 476 541 463 558 q 449 576 434 576 l 177 576 q 161 576 148 558 q 134 541 134 513 z m 574 171 q 574 98 533 44 q 493 -10 434 -10 l 177 -10 q 117 -10 77 44 q 37 98 37 171 l 37 513 q 37 586 77 640 q 117 693 177 693 l 434 693 q 493 693 533 640 q 574 586 574 513 z"},"(":{"x_min":0,"x_max":391,"ha":391,"o":"m 354 59 l 354 -59 l 177 -59 q 117 -59 77 -5 q 37 49 37 122 l 37 562 q 37 635 77 688 q 117 742 177 742 l 354 742 l 354 625 l 177 625 q 161 625 148 607 q 134 589 134 562 l 134 122 q 134 94 148 76 q 161 59 177 59 z"},"C":{"x_min":0,"x_max":610,"ha":610,"o":"m 574 107 l 574 -10 l 177 -10 q 117 -10 77 44 q 37 98 37 171 l 37 513 q 37 586 77 640 q 117 693 177 693 l 574 693 l 574 576 l 177 576 q 161 576 148 558 q 134 541 134 513 l 134 171 q 134 143 148 125 q 161 107 177 107 z"},"W":{"x_min":0,"x_max":763,"ha":763,"o":"m 142 -10 l 10 693 l 108 693 l 209 153 l 325 693 l 438 693 l 539 153 l 655 693 l 753 693 l 602 -10 l 471 -10 l 378 485 l 272 -10 z"},"A":{"x_min":0,"x_max":610,"ha":610,"o":"m 304 576 l 224 303 l 386 303 l 306 576 z m 370 693 l 577 -10 l 479 -10 l 421 186 l 189 186 l 132 -10 l 33 -10 l 241 693 z"},"f":{"x_min":0,"x_max":354,"ha":354,"o":"m 134 405 l 134 -10 l 37 -10 l 37 513 q 37 586 77 640 q 117 693 177 693 l 318 694 l 317 577 l 177 576 q 161 576 148 558 q 134 541 134 522 l 317 522 l 317 405 z"},"Q":{"x_min":0,"x_max":610,"ha":610,"o":"m 256 -10 l 177 -10 q 117 -10 77 44 q 37 98 37 171 l 37 513 q 37 586 77 640 q 117 693 177 693 l 434 693 q 493 693 533 640 q 574 586 574 513 l 574 171 q 574 98 533 44 q 493 -10 434 -10 l 354 -10 l 354 -107 l 256 -107 z m 256 107 l 256 205 l 354 205 l 354 107 l 434 107 q 449 107 463 125 q 476 143 476 171 l 476 513 q 476 541 463 558 q 449 576 434 576 l 177 576 q 161 576 148 558 q 134 541 134 513 l 134 171 q 134 143 148 125 q 161 107 177 107 z"},"w":{"x_min":0,"x_max":562,"ha":562,"o":"m 105 -10 l 10 522 l 108 522 l 171 171 l 233 522 l 328 522 l 391 171 l 453 522 l 551 522 l 456 -10 l 325 -10 l 281 239 l 236 -10 z"},"-":{"x_min":0,"x_max":500,"ha":500,"o":"m 37 400 l 464 400 l 464 283 l 37 283 z"},"E":{"x_min":0,"x_max":610,"ha":610,"o":"m 134 283 l 134 171 q 134 143 148 125 q 161 107 177 107 l 574 107 l 574 -10 l 177 -10 q 117 -10 77 44 q 37 98 37 171 l 37 513 q 37 586 77 640 q 117 693 177 693 l 574 693 l 574 576 l 177 576 q 161 576 148 558 q 134 541 134 513 l 134 400 l 500 400 l 500 283 z"},"s":{"x_min":0,"x_max":500,"ha":500,"o":"m 141 522 l 427 522 l 427 405 l 141 405 q 140 405 137 402 q 134 398 134 391 l 134 330 q 134 322 137 318 q 140 315 141 315 l 360 315 q 405 315 435 276 q 464 236 464 183 l 464 123 q 464 69 435 30 q 405 -10 360 -10 l 37 -10 l 37 107 l 360 107 q 361 107 364 111 q 366 114 366 122 l 366 183 q 366 191 364 194 q 361 198 360 198 l 141 198 q 96 198 66 237 q 37 276 37 330 l 37 391 q 37 444 66 483 q 96 522 141 522 z"},">":{"x_min":0,"x_max":500,"ha":500,"o":"m 37 82 l 37 201 l 366 341 l 366 343 l 37 482 l 37 602 l 464 421 l 464 263 z"},"l":{"x_min":0,"x_max":171,"ha":171,"o":"m 37 693 l 134 693 l 134 -10 l 37 -10 z"},"8":{"x_min":0,"x_max":574,"ha":574,"o":"m 397 107 q 413 107 426 125 q 439 143 439 171 l 439 220 q 439 248 426 265 q 413 283 397 283 l 177 283 q 161 283 148 265 q 134 248 134 220 l 134 171 q 134 143 148 125 q 161 107 177 107 z m 397 400 q 413 400 426 418 q 439 436 439 464 l 439 513 q 439 541 426 558 q 413 576 397 576 l 177 576 q 161 576 148 558 q 134 541 134 513 l 134 464 q 134 436 148 418 q 161 400 177 400 z m 73 343 q 37 394 37 464 l 37 513 q 37 586 77 640 q 117 693 177 693 l 397 693 q 457 693 497 640 q 537 586 537 513 l 537 464 q 537 394 501 342 l 498 346 q 500 344 501 342 q 500 340 498 338 l 501 341 q 537 289 537 220 l 537 171 q 537 98 497 44 q 457 -10 397 -10 l 177 -10 q 117 -10 77 44 q 37 98 37 171 l 37 220 q 37 290 72 341 q 75 338 76 338 l 76 339 q 74 340 73 342 q 75 344 76 346 z"},"\\":{"x_min":0,"x_max":372,"ha":372,"o":"m 132 693 l 339 -10 l 241 -10 l 33 693 z"},"e":{"x_min":0,"x_max":500,"ha":500,"o":"m 134 186 l 134 171 q 134 143 148 125 q 161 107 177 107 l 427 107 l 427 -10 l 177 -10 q 117 -10 77 44 q 37 98 37 171 l 37 342 q 37 415 77 469 q 117 522 177 522 l 324 522 q 383 522 424 469 q 464 415 464 342 l 464 186 z m 366 303 l 366 342 q 366 370 353 387 q 339 405 324 405 l 177 405 q 161 405 148 387 q 134 370 134 342 l 134 303 z"},"b":{"x_min":0,"x_max":500,"ha":500,"o":"m 366 342 q 366 370 353 387 q 339 405 324 405 l 134 405 l 134 107 l 324 107 q 339 107 353 125 q 366 143 366 171 z m 37 693 l 134 693 l 134 522 l 324 522 q 383 522 424 469 q 464 415 464 342 l 464 171 q 464 98 424 44 q 383 -10 324 -10 l 37 -10 z"},"%":{"x_min":0,"x_max":610,"ha":610,"o":"m 134 488 q 134 460 148 443 q 161 425 177 425 l 214 425 q 229 425 243 443 q 256 460 256 488 l 256 513 q 256 541 243 558 q 229 576 214 576 l 177 576 q 161 576 148 558 q 134 541 134 513 z m 354 171 q 354 143 367 125 q 381 107 397 107 l 434 107 q 449 107 463 125 q 476 143 476 171 l 476 195 q 476 223 463 241 q 449 259 434 259 l 397 259 q 381 259 367 241 q 354 223 354 195 z m 246 308 q 246 308 214 308 l 177 308 q 117 308 77 361 q 37 415 37 488 l 37 513 q 37 586 77 640 q 117 693 177 693 l 214 693 q 273 693 315 639 q 334 613 336 613 l 336 614 l 359 693 l 458 693 l 364 375 q 365 376 397 376 l 434 376 q 493 376 533 322 q 574 269 574 195 l 574 171 q 574 98 533 44 q 493 -10 434 -10 l 397 -10 q 337 -10 296 45 q 277 70 274 70 l 274 69 l 251 -10 l 152 -10 z"},"m":{"x_min":0,"x_max":720,"ha":720,"o":"m 312 342 q 312 370 298 387 q 285 405 269 405 l 177 405 q 161 405 148 387 q 134 370 134 342 l 134 -10 l 37 -10 l 37 342 q 37 415 77 469 q 117 522 177 522 l 269 522 q 329 522 361 468 q 392 522 452 522 l 543 522 q 603 522 643 469 q 684 415 684 342 l 684 -10 l 586 -10 l 586 342 q 586 370 573 387 q 559 405 543 405 l 452 405 q 436 405 423 387 q 409 370 409 342 l 409 -10 l 312 -10 z"},"#":{"x_min":0,"x_max":500,"ha":500,"o":"m 110 498 l 110 645 l 208 645 l 208 498 l 293 498 l 293 645 l 391 645 l 391 498 l 464 498 l 464 381 l 391 381 l 391 303 l 464 303 l 464 186 l 391 186 l 391 39 l 293 39 l 293 186 l 208 186 l 208 39 l 110 39 l 110 186 l 37 186 l 37 303 l 110 303 l 110 381 l 37 381 l 37 498 z m 208 381 l 208 303 l 293 303 l 293 381 z"},",":{"x_min":0,"x_max":171,"ha":171,"o":"m 73 -10 l 37 -10 l 37 107 l 134 107 l 134 -24 q 134 -47 121 -65 q 107 -83 85 -83 l 62 -83 l 32 -15 l 67 -15 q 73 -15 73 -10 z"},"n":{"x_min":0,"x_max":500,"ha":500,"o":"m 134 -10 l 37 -10 l 37 342 q 37 415 77 469 q 117 522 177 522 l 324 522 q 383 522 424 469 q 464 415 464 342 l 464 -10 l 366 -10 l 366 342 q 366 370 353 387 q 339 405 324 405 l 177 405 q 161 405 148 387 q 134 370 134 342 z"},"h":{"x_min":0,"x_max":500,"ha":500,"o":"m 134 -10 l 37 -10 l 37 693 l 134 693 l 134 522 l 324 522 q 383 522 424 469 q 464 415 464 342 l 464 -10 l 366 -10 l 366 342 q 366 370 353 387 q 339 405 324 405 l 134 405 z"},"z":{"x_min":0,"x_max":500,"ha":500,"o":"m 219 107 l 464 107 l 464 -10 l 29 -10 l 281 405 l 37 405 l 37 522 l 471 522 z"},"B":{"x_min":0,"x_max":610,"ha":610,"o":"m 134 400 l 434 400 q 449 400 463 418 q 476 436 476 464 l 476 513 q 476 541 463 558 q 449 576 434 576 l 134 576 z m 134 283 l 134 107 l 434 107 q 449 107 463 125 q 476 143 476 171 l 476 220 q 476 248 463 265 q 449 283 434 283 z m 538 341 q 574 289 574 220 l 574 171 q 574 98 533 44 q 493 -10 434 -10 l 37 -10 l 37 693 l 434 693 q 493 693 533 640 q 574 586 574 513 l 574 464 q 574 394 538 341 z"},"K":{"x_min":0,"x_max":586,"ha":586,"o":"m 37 693 l 134 693 l 134 282 l 463 693 l 584 693 l 330 376 l 582 -10 l 472 -10 l 270 300 l 134 131 l 134 -10 l 37 -10 z"},"R":{"x_min":0,"x_max":610,"ha":610,"o":"m 134 352 l 434 352 q 449 352 463 369 q 476 387 476 415 l 476 513 q 476 541 463 558 q 449 576 434 576 l 134 576 z m 134 -10 l 37 -10 l 37 693 l 434 693 q 493 693 533 640 q 574 586 574 513 l 574 415 q 574 342 539 293 q 574 244 574 171 l 574 -10 l 476 -10 l 476 171 q 476 199 463 217 q 449 234 434 234 l 134 234 z"},"T":{"x_min":0,"x_max":610,"ha":610,"o":"m 574 693 l 574 576 l 354 576 l 354 -10 l 256 -10 l 256 576 l 37 576 l 37 693 z"},"P":{"x_min":0,"x_max":610,"ha":610,"o":"m 134 352 l 434 352 q 449 352 463 369 q 476 387 476 415 l 476 513 q 476 541 463 558 q 449 576 434 576 l 134 576 z m 37 693 l 434 693 q 493 693 533 640 q 574 586 574 513 l 574 415 q 574 342 533 288 q 493 234 434 234 l 134 234 l 134 -10 l 37 -10 z"},"|":{"x_min":0,"x_max":171,"ha":171,"o":"m 37 742 l 134 742 l 134 -59 l 37 -59 z"},"t":{"x_min":0,"x_max":354,"ha":354,"o":"m 317 522 l 317 405 l 134 405 l 134 171 q 134 144 148 126 q 161 108 177 107 l 317 107 l 317 -10 l 177 -9 q 117 -9 77 44 q 37 98 37 171 l 37 694 l 134 694 l 134 522 z"},"M":{"x_min":0,"x_max":647,"ha":647,"o":"m 259 -10 l 134 413 l 134 -10 l 37 -10 l 37 693 l 150 693 l 323 107 l 324 107 l 497 693 l 610 693 l 610 -10 l 513 -10 l 513 413 l 388 -10 z"},"g":{"x_min":0,"x_max":500,"ha":500,"o":"m 134 171 q 134 143 148 125 q 161 107 177 107 l 366 107 l 366 405 l 177 405 q 161 405 148 387 q 134 370 134 342 z m 366 -10 l 177 -10 q 117 -10 77 44 q 37 98 37 171 l 37 342 q 37 415 77 469 q 117 522 177 522 l 464 522 l 464 -24 q 464 -98 424 -151 q 383 -205 324 -205 l 110 -205 l 110 -88 l 324 -88 q 339 -88 353 -70 q 366 -52 366 -24 z"},"j":{"x_min":0,"x_max":146,"ha":146,"o":"m 12 522 l 110 522 l 110 -24 q 110 -98 70 -151 q 29 -205 -30 -205 l -61 -205 l -61 -88 l -30 -88 q -15 -88 -1 -70 q 12 -52 12 -24 z m 12 693 l 110 693 l 110 576 l 12 576 z"},"i":{"x_min":0,"x_max":171,"ha":171,"o":"m 37 522 l 134 522 l 134 -10 l 37 -10 z m 134 693 l 134 576 l 37 576 l 37 693 z"},"y":{"x_min":0,"x_max":500,"ha":500,"o":"m 366 522 l 464 522 l 464 -24 q 464 -98 424 -151 q 383 -205 324 -205 l 110 -205 l 110 -88 l 324 -88 q 339 -88 353 -70 q 366 -52 366 -24 l 366 -10 l 177 -10 q 117 -10 77 44 q 37 98 37 171 l 37 522 l 134 522 l 134 171 q 134 143 148 125 q 161 107 177 107 l 366 107 z"},"@":{"x_min":0,"x_max":537,"ha":537,"o":"m 244 317 q 244 290 258 272 q 271 254 287 254 l 403 254 l 403 430 l 287 430 q 271 430 258 412 q 244 394 244 366 z m 403 576 l 177 576 q 161 576 148 558 q 134 541 134 513 l 134 171 q 134 143 148 125 q 161 107 177 107 l 464 107 l 464 -10 l 177 -10 q 117 -10 77 44 q 37 98 37 171 l 37 513 q 37 586 77 640 q 117 693 177 693 l 500 693 l 500 137 l 287 137 q 227 137 187 190 q 146 244 146 317 l 146 366 q 146 439 187 493 q 227 547 287 547 l 403 547 z"},".":{"x_min":0,"x_max":171,"ha":171,"o":"m 37 107 l 134 107 l 134 -10 l 37 -10 z"},"p":{"x_min":0,"x_max":500,"ha":500,"o":"m 366 342 q 366 370 353 387 q 339 405 324 405 l 134 405 l 134 107 l 324 107 q 339 107 353 125 q 366 143 366 171 z m 37 522 l 324 522 q 383 522 424 469 q 464 415 464 342 l 464 171 q 464 98 424 44 q 383 -10 324 -10 l 134 -10 l 134 -181 l 37 -181 z"},"X":{"x_min":0,"x_max":562,"ha":562,"o":"m 226 342 l 5 693 l 114 693 l 281 429 l 447 693 l 557 693 l 335 342 l 557 -10 l 447 -10 l 281 255 l 114 -10 l 5 -10 z"},"*":{"x_min":0,"x_max":413,"ha":413,"o":"m 256 621 l 344 659 l 371 546 l 282 507 l 337 406 l 260 332 l 207 430 l 154 332 l 77 406 l 132 507 l 42 546 l 70 659 l 158 621 l 158 742 l 256 742 z"},"Y":{"x_min":0,"x_max":562,"ha":562,"o":"m 232 333 l 229 337 l 5 693 l 114 693 l 281 429 l 447 693 l 557 693 l 333 337 l 330 333 l 330 -10 l 232 -10 z"},"c":{"x_min":0,"x_max":500,"ha":500,"o":"m 464 107 l 464 -10 l 177 -10 q 117 -10 77 44 q 37 98 37 171 l 37 342 q 37 415 77 469 q 117 522 177 522 l 464 522 l 464 405 l 177 405 q 161 405 148 387 q 134 370 134 342 l 134 171 q 134 143 148 125 q 161 107 177 107 z"},"!":{"x_min":0,"x_max":171,"ha":171,"o":"m 134 137 l 37 137 l 37 693 l 134 693 z m 37 -10 l 37 107 l 134 107 l 134 -10 z"},"/":{"x_min":0,"x_max":372,"ha":372,"o":"m 33 -10 l 241 693 l 339 693 l 132 -10 z"},"[":{"x_min":0,"x_max":391,"ha":391,"o":"m 354 59 l 354 -59 l 37 -59 l 37 742 l 354 742 l 354 625 l 134 625 l 134 59 z"},"6":{"x_min":0,"x_max":574,"ha":574,"o":"m 134 332 l 134 171 q 134 143 148 125 q 161 107 177 107 l 397 107 q 413 107 426 125 q 439 143 439 171 l 439 269 q 439 296 426 314 q 413 332 397 332 z m 134 449 l 397 449 q 457 449 497 396 q 537 342 537 269 l 537 171 q 537 98 497 44 q 457 -10 397 -10 l 177 -10 q 117 -10 77 44 q 37 98 37 171 l 37 513 q 37 586 77 640 q 117 693 177 693 l 500 693 l 500 576 l 177 576 q 161 576 148 558 q 134 541 134 513 z"},"r":{"x_min":0,"x_max":354,"ha":354,"o":"m 37 -10 l 37 342 q 37 415 77 469 q 117 522 177 522 l 318 522 l 317 405 l 177 405 q 161 405 148 387 q 134 370 134 342 l 134 -10 z"},"2":{"x_min":0,"x_max":574,"ha":574,"o":"m 177 283 q 161 283 148 265 q 134 248 134 220 l 134 107 l 537 107 l 537 -10 l 37 -10 l 37 220 q 37 293 77 347 q 117 400 177 400 l 397 400 q 413 400 426 418 q 439 436 439 464 l 439 513 q 439 541 426 558 q 413 576 397 576 l 37 576 l 37 693 l 397 693 q 457 693 497 640 q 537 586 537 513 l 537 464 q 537 391 497 337 q 457 283 397 283 z"},"{":{"x_min":0,"x_max":427,"ha":427,"o":"m 244 220 l 244 122 q 244 94 258 76 q 271 59 287 59 l 391 59 l 391 -59 l 287 -59 q 227 -59 187 -5 q 146 49 146 122 l 146 220 q 146 248 133 265 q 120 283 104 283 l 37 283 l 37 400 l 104 400 q 120 400 133 418 q 146 436 146 464 l 146 562 q 146 635 187 688 q 227 742 287 742 l 391 742 l 391 625 l 287 625 q 271 625 258 607 q 244 589 244 562 l 244 464 q 244 391 209 341 q 244 293 244 220 z"},"9":{"x_min":0,"x_max":574,"ha":574,"o":"m 439 352 l 439 513 q 439 541 426 558 q 413 576 397 576 l 177 576 q 161 576 148 558 q 134 541 134 513 l 134 415 q 134 387 148 369 q 161 352 177 352 z m 439 234 l 177 234 q 117 234 77 288 q 37 342 37 415 l 37 513 q 37 586 77 640 q 117 693 177 693 l 397 693 q 457 693 497 640 q 537 586 537 513 l 537 171 q 537 98 497 44 q 457 -10 397 -10 l 73 -10 l 73 107 l 397 107 q 413 107 426 125 q 439 143 439 171 z"}," ":{"x_min":0,"x_max":391,"ha":391,"o":""},"I":{"x_min":0,"x_max":171,"ha":171,"o":"m 37 693 l 134 693 l 134 -10 l 37 -10 z"},"H":{"x_min":0,"x_max":610,"ha":610,"o":"m 37 693 l 134 693 l 134 400 l 476 400 l 476 693 l 574 693 l 574 -10 l 476 -10 l 476 283 l 134 283 l 134 -10 l 37 -10 z"},"4":{"x_min":0,"x_max":574,"ha":574,"o":"m 464 205 l 537 205 l 537 88 l 464 88 l 464 -10 l 366 -10 l 366 88 l 32 88 l 259 693 l 377 693 l 194 205 l 366 205 l 366 352 l 464 352 z"},"~":{"x_min":0,"x_max":537,"ha":537,"o":"m 141 986 l 214 986 q 259 986 288 947 q 317 908 317 854 q 317 847 320 843 q 323 840 324 840 l 397 840 q 397 840 400 843 q 403 847 403 854 l 403 913 l 500 913 l 500 854 q 500 801 471 762 q 442 723 397 723 l 324 723 q 279 723 249 762 q 220 801 220 854 q 220 862 217 866 q 214 869 214 869 l 141 869 q 140 869 137 866 q 134 862 134 854 l 134 796 l 37 796 l 37 854 q 37 908 66 947 q 96 986 141 986 z"},"D":{"x_min":0,"x_max":610,"ha":610,"o":"m 134 107 l 434 107 q 449 107 463 125 q 476 143 476 171 l 476 513 q 476 541 463 558 q 449 576 434 576 l 134 576 z m 574 171 q 574 98 533 44 q 493 -10 434 -10 l 37 -10 l 37 693 l 434 693 q 493 693 533 640 q 574 586 574 513 z"},"^":{"x_min":0,"x_max":537,"ha":537,"o":"m 37 711 l 37 834 l 269 989 l 500 834 l 500 711 l 269 866 z"},"0":{"x_min":0,"x_max":574,"ha":574,"o":"m 134 171 q 134 143 148 125 q 161 107 177 107 l 397 107 q 413 107 426 125 q 439 143 439 171 l 439 513 q 439 541 426 558 q 413 576 397 576 l 177 576 q 161 576 148 558 q 134 541 134 513 z m 537 171 q 537 98 497 44 q 457 -10 397 -10 l 177 -10 q 117 -10 77 44 q 37 98 37 171 l 37 513 q 37 586 77 640 q 117 693 177 693 l 397 693 q 457 693 497 640 q 537 586 537 513 z"},"F":{"x_min":0,"x_max":610,"ha":610,"o":"m 134 283 l 134 -10 l 37 -10 l 37 513 q 37 586 77 640 q 117 693 177 693 l 574 693 l 574 576 l 177 576 q 161 576 148 558 q 134 541 134 513 l 134 400 l 500 400 l 500 283 z"},"`":{"x_min":0,"x_max":354,"ha":354,"o":"m 28 986 l 223 986 l 322 723 l 207 723 z"},"k":{"x_min":0,"x_max":476,"ha":476,"o":"m 37 693 l 134 693 l 134 278 l 131 274 l 354 522 l 476 522 l 247 268 l 474 -10 l 335 -10 l 181 195 l 134 144 l 134 -10 l 37 -10 z"},"u":{"x_min":0,"x_max":500,"ha":500,"o":"m 366 522 l 464 522 l 464 171 q 464 98 424 44 q 383 -10 324 -10 l 177 -10 q 117 -10 77 44 q 37 98 37 171 l 37 522 l 134 522 l 134 171 q 134 143 148 125 q 161 107 177 107 l 324 107 q 339 107 353 125 q 366 143 366 171 z"},"]":{"x_min":0,"x_max":391,"ha":391,"o":"m 256 59 l 256 625 l 37 625 l 37 742 l 354 742 l 354 -59 l 37 -59 l 37 59 z"},"U":{"x_min":0,"x_max":610,"ha":610,"o":"m 134 171 q 134 143 148 125 q 161 107 177 107 l 434 107 q 449 107 463 125 q 476 143 476 171 l 476 693 l 574 693 l 574 171 q 574 98 533 44 q 493 -10 434 -10 l 177 -10 q 117 -10 77 44 q 37 98 37 171 l 37 693 l 134 693 z"},"o":{"x_min":0,"x_max":500,"ha":500,"o":"m 134 171 q 134 143 148 125 q 161 107 177 107 l 324 107 q 339 107 353 125 q 366 143 366 171 l 366 342 q 366 370 353 387 q 339 405 324 405 l 177 405 q 161 405 148 387 q 134 370 134 342 z m 464 171 q 464 98 424 44 q 383 -10 324 -10 l 177 -10 q 117 -10 77 44 q 37 98 37 171 l 37 342 q 37 415 77 469 q 117 522 177 522 l 324 522 q 383 522 424 469 q 464 415 464 342 z"},"N":{"x_min":0,"x_max":610,"ha":610,"o":"m 134 526 l 134 -10 l 37 -10 l 37 693 l 139 693 l 476 157 l 476 693 l 574 693 l 574 -10 l 472 -10 z"},"+":{"x_min":0,"x_max":500,"ha":500,"o":"m 202 283 l 37 283 l 37 400 l 202 400 l 202 596 l 299 596 l 299 400 l 464 400 l 464 283 l 299 283 l 299 88 l 202 88 z"},"G":{"x_min":0,"x_max":610,"ha":610,"o":"m 574 400 l 574 171 q 574 98 533 44 q 493 -10 434 -10 l 177 -10 q 117 -10 77 44 q 37 98 37 171 l 37 513 q 37 586 77 640 q 117 693 177 693 l 574 693 l 574 576 l 177 576 q 161 576 148 558 q 134 541 134 513 l 134 171 q 134 143 148 125 q 161 107 177 107 l 434 107 q 449 107 463 125 q 476 143 476 171 l 476 283 l 293 283 l 293 400 z"},"q":{"x_min":0,"x_max":500,"ha":500,"o":"m 134 171 q 134 143 148 125 q 161 107 177 107 l 366 107 l 366 405 l 177 405 q 161 405 148 387 q 134 370 134 342 z m 464 -181 l 366 -181 l 366 -10 l 177 -10 q 117 -10 77 44 q 37 98 37 171 l 37 342 q 37 415 77 469 q 117 522 177 522 l 464 522 z"},"d":{"x_min":0,"x_max":500,"ha":500,"o":"m 134 171 q 134 143 148 125 q 161 107 177 107 l 366 107 l 366 405 l 177 405 q 161 405 148 387 q 134 370 134 342 z m 464 -10 l 177 -10 q 117 -10 77 44 q 37 98 37 171 l 37 342 q 37 415 77 469 q 117 522 177 522 l 366 522 l 366 693 l 464 693 z"},"1":{"x_min":0,"x_max":171,"ha":171,"o":"m 37 693 l 134 693 l 134 -10 l 37 -10 z"},"5":{"x_min":0,"x_max":574,"ha":574,"o":"m 37 332 l 37 693 l 500 693 l 500 576 l 134 576 l 134 449 l 397 449 q 457 449 497 396 q 537 342 537 269 l 537 171 q 537 98 497 44 q 457 -10 397 -10 l 37 -10 l 37 107 l 397 107 q 413 107 426 125 q 439 143 439 171 l 439 269 q 439 296 426 314 q 413 332 397 332 z"}}}
